<svg width="245" height="231" viewBox="0 0 245 231" fill="none" xmlns="http://www.w3.org/2000/svg">
<path d="M166.901 146.083C165.31 143.807 165.991 142.135 167.865 140.204C171.613 136.333 173.67 131.51 174.161 126.13C174.828 118.886 172.078 112.61 168.507 106.516C164.625 99.8719 160.988 93.0883 157.234 86.3744C154.964 82.3033 152.711 78.2223 150.356 74.1924C149.428 72.6075 147.533 72.2492 145.925 73.0908C142.869 74.6925 141.126 79.6163 142.742 82.7502C145.526 88.1369 148.454 93.4606 151.424 98.7464C152.136 100.004 152.225 100.902 151.503 102.234C148.438 107.839 146.677 113.747 147.059 120.295C147.353 125.356 148.518 130.058 150.73 134.563C151.325 135.776 151.645 137.079 150.201 137.892C148.917 138.614 147.444 137.761 146.724 136.003C145.843 133.844 144.773 131.734 144.212 129.491C141.944 120.452 142.055 111.544 146.3 103.013C147.038 101.53 147.37 100.137 146.508 98.6094C143.366 93.0021 140.232 87.3768 137.107 81.7597C133.409 75.0945 129.777 68.3894 126.003 61.7734C124.081 58.4064 122.53 54.8202 120.203 51.6924C118.477 49.3649 115.534 48.9487 113.047 50.5367C110.645 52.0748 109.713 55.1686 111.043 57.6029C115.887 66.4521 120.731 75.3013 125.702 84.0802C126.233 85.0171 126.424 86.3642 127.867 86.7806C130.464 87.5196 132.085 89.3541 132.57 91.9971C132.816 93.3754 133.453 93.9538 134.766 94.3969C139.237 95.9345 140.991 99.5415 139.495 103.983C139.147 105.017 138.448 105.943 137.848 107.013C140.378 109.169 140.919 112.002 140.232 114.955C139.51 118.052 136.601 119.248 134.078 120.689C134.335 121.216 134.414 121.596 134.642 121.835C137.38 124.697 137.284 130.576 132.694 133.075C124.942 137.298 117.403 141.927 109.398 145.676C108.268 146.203 107.614 146.644 108.44 148.026C112.928 155.557 119.281 160.772 127.604 163.548C128.377 163.801 129.111 164.013 129.523 164.747C131.582 168.447 133.633 172.147 135.675 175.848C138.782 181.466 141.872 187.086 144.996 192.694C145.448 193.505 145.989 193.959 147.051 193.331C149.42 191.936 151.887 190.709 154.304 189.38C160.989 185.707 167.711 182.074 174.335 178.29C176.935 176.809 179.806 175.703 182.137 173.529C179.821 169.303 177.611 165.21 175.35 161.138C172.607 156.205 169.829 151.283 166.909 146.082M73.3075 122.734C72.5323 123.069 71.7379 123.379 70.9727 123.732C67.2584 125.459 63.5641 127.219 59.8405 128.938C52.9963 132.088 46.1414 135.212 39.3559 138.322C39.3316 139.351 39.6509 140.022 40.0425 140.723C44.755 149.072 49.485 157.42 54.0876 165.83C54.9437 167.394 55.5078 167.802 57.0954 166.663C67.9484 158.861 78.8513 151.142 89.7623 143.414C90.7324 142.732 91.7665 141.834 93.0541 142.296C94.7746 142.922 96.5663 142.813 98.3116 142.919C102.306 143.173 106.207 142.855 109.828 140.81C113.821 138.545 117.933 136.492 121.946 134.261C125.029 132.552 128.071 130.749 131.084 128.905C132.472 128.052 132.459 126.746 131.879 125.356C131.257 123.881 130.023 123.678 128.714 123.919C127.908 124.064 127.125 124.409 126.366 124.848C123.998 126.243 121.69 127.757 119.131 128.815C117.861 129.343 116.728 129.335 116.051 127.952C115.344 126.51 116.312 125.669 117.371 124.998C118.506 124.286 119.719 123.692 120.894 123.047C125.415 120.561 129.956 118.109 134.457 115.59C136.003 114.726 136.712 112.455 135.779 111.169C134.836 109.875 133.56 109.193 131.905 110.125C128.088 112.272 124.261 114.393 120.436 116.532C118.527 117.605 116.682 118.814 114.701 119.726C113.527 120.265 111.99 120.751 111.101 119.216C110.372 117.959 110.978 116.837 112.168 116.165C114.928 114.593 117.738 113.114 120.517 111.567C125.087 109.034 129.667 106.508 134.207 103.916C135.742 103.035 136.12 101.297 135.282 99.8552C134.373 98.2953 132.868 97.8657 131.306 98.7392C124.025 102.797 116.743 106.838 109.473 110.921C108.257 111.604 107.155 111.787 106.376 110.437C105.617 109.13 105.9 108.039 107.303 107.265C110.768 105.362 114.211 103.408 117.666 101.489C120.572 99.8715 123.508 98.3133 126.366 96.6378C127.225 96.1297 128.362 95.6899 128.374 94.3637C128.381 93.2221 128.489 92.012 127.359 91.284C126.089 90.4604 124.685 90.7084 123.493 91.3627C116.994 94.9269 110.527 98.5766 104.059 102.2C101.162 103.817 98.2954 105.493 95.3493 107.035C94.1727 107.653 92.9153 107.495 92.2255 106.175C91.585 104.929 92.1593 103.985 93.281 103.335C94.3185 102.736 95.3858 102.187 96.4326 101.595C99.6085 99.8272 100.802 97.584 100.143 94.6988C99.8787 93.5588 99.3877 93.0667 98.2066 93.7466C96.191 94.9153 94.1368 96.034 92.1107 97.1771C84.5977 101.427 80.7746 107.972 80.1969 116.482C80.072 118.326 79.6843 119.801 77.8169 120.582C76.3846 121.183 75.0052 121.912 73.2987 122.734M105.242 56.115C104.138 54.1475 103.159 52.0922 101.88 50.2424C100.991 48.9707 99.6417 48.1264 97.9251 48.0541C95.5216 47.951 93.7737 49.057 92.7129 51.0713C91.6526 53.0945 92.0696 55.1542 93.1815 57.1123C95.8961 61.8894 98.6195 66.6658 101.284 71.4815C104.864 77.9532 108.384 84.4554 111.947 90.937C112.462 91.8839 113.17 92.2203 114.234 91.6189C116.563 90.2965 118.942 89.0496 121.271 87.7272C121.668 87.5061 122.101 87.1598 122.109 86.4131C119.282 81.2753 116.402 76.0183 113.487 70.7726C110.815 65.9662 108.1 61.1891 105.25 56.1056M106.162 89.1759C103.7 84.7409 101.237 80.2973 98.7578 75.8723C97.0712 72.8574 95.502 69.764 93.6224 66.8768C91.9304 64.2836 88.795 63.758 86.3155 65.3192C83.5925 67.0379 82.8291 69.7863 84.3606 72.5926C87.3414 78.0356 90.4827 83.3883 93.285 88.9141C94.243 90.804 95.0798 90.596 96.5173 89.819C100.347 87.7416 103.885 89.7485 104.291 94.1438C104.366 94.9548 104.121 95.8497 104.75 96.5516C105.513 96.6647 105.965 96.1063 106.518 95.8567C108.925 94.7571 108.972 94.5606 107.785 92.283C107.298 91.343 106.759 90.4242 106.154 89.1852M83.5999 98.3461C85.4483 96.0482 88.0274 94.6555 90.4591 92.9134C89.5957 91.2449 88.8465 89.5773 87.9112 88.0105C86.3882 85.4493 83.0519 84.4375 80.7629 85.7132C77.8161 87.3687 76.8222 90.3351 78.2412 93.2898C79.3316 95.5654 80.5744 97.7602 81.9968 99.8896C82.4989 99.4154 82.9516 98.9886 83.5999 98.3461Z" fill="#779BC6"/>
<path d="M131.013 216.354C123.685 219.673 118.384 215.801 113.545 212.759C77.2236 190.036 43.9909 163.532 22.7423 125.506C8.9606 100.847 -0.257923 74.6661 11.1269 45.4896C23.6641 13.4092 54.8227 -4.79736 88.7467 1.10247C100.039 3.03836 110.226 7.00231 119.03 14.2388C123.547 17.9262 127.418 17.7419 131.982 14.2388C166.505 -12.4026 225.227 -1.84744 241.036 48.209C248.135 70.7482 244.632 94.1171 233.938 115.55C211.399 160.583 174.294 191.05 131.013 216.308M221.669 36.6823C202.955 8.33543 158.025 -0.633353 134.703 24.0722C123.733 35.6875 124.745 36.1485 113.545 24.0722C88.2859 -3.12235 35.1872 15.2529 22.7423 48.209C13.5238 72.638 22.8718 100.627 34.2567 120.17C52.0484 150.683 84.8289 179.285 113.545 198.874C117.923 201.87 129.909 204.71 134.703 201.483C166.645 179.728 203.462 150.673 221.669 115.55C231.809 95.9148 234.16 59.6825 221.669 36.6823Z" fill="#E5F0E7"/>
<mask id="path-3-outside-1_110_206" maskUnits="userSpaceOnUse" x="178.287" y="66.396" width="48" height="44" fill="black">
<rect fill="white" x="178.287" y="66.396" width="48" height="44"/>
<path d="M203.504 108.578C202.143 109.194 201.159 108.475 200.26 107.91C193.514 103.69 187.342 98.7675 183.396 91.7052C180.836 87.1254 179.124 82.2631 181.239 76.8444C183.567 70.8864 189.354 67.505 195.654 68.6007C197.752 68.9603 199.644 69.6965 201.279 71.0405C202.118 71.7253 202.837 71.691 203.684 71.0405C210.096 66.0926 221.002 68.0529 223.938 77.3494C225.256 81.5354 224.606 85.8756 222.62 89.8561C218.434 98.2196 211.542 103.878 203.504 108.569M220.341 75.2087C216.865 69.9441 208.521 68.2784 204.189 72.8667C202.152 75.0239 202.34 75.1095 200.26 72.8667C195.569 67.8161 185.707 71.2288 183.396 77.3494C181.684 81.8864 183.42 87.0845 185.534 90.7141C188.839 96.3811 194.927 101.693 200.26 105.331C201.073 105.888 203.299 106.415 204.189 105.816C210.122 101.775 216.96 96.3791 220.341 89.8561C222.224 86.2094 222.661 79.4803 220.341 75.2087Z"/>
</mask>
<path d="M203.504 108.578C202.143 109.194 201.159 108.475 200.26 107.91C193.514 103.69 187.342 98.7675 183.396 91.7052C180.836 87.1254 179.124 82.2631 181.239 76.8444C183.567 70.8864 189.354 67.505 195.654 68.6007C197.752 68.9603 199.644 69.6965 201.279 71.0405C202.118 71.7253 202.837 71.691 203.684 71.0405C210.096 66.0926 221.002 68.0529 223.938 77.3494C225.256 81.5354 224.606 85.8756 222.62 89.8561C218.434 98.2196 211.542 103.878 203.504 108.569M220.341 75.2087C216.865 69.9441 208.521 68.2784 204.189 72.8667C202.152 75.0239 202.34 75.1095 200.26 72.8667C195.569 67.8161 185.707 71.2288 183.396 77.3494C181.684 81.8864 183.42 87.0845 185.534 90.7141C188.839 96.3811 194.927 101.693 200.26 105.331C201.073 105.888 203.299 106.415 204.189 105.816C210.122 101.775 216.96 96.3791 220.341 89.8561C222.224 86.2094 222.661 79.4803 220.341 75.2087Z" fill="#E5F0E7"/>
<path d="M200.26 107.91L201.058 106.64L201.056 106.638L200.26 107.91ZM183.396 91.7052L184.705 90.9735L184.705 90.9734L183.396 91.7052ZM181.239 76.8444L179.842 76.2984L179.841 76.2991L181.239 76.8444ZM195.654 68.6007L195.397 70.0786L195.401 70.0792L195.654 68.6007ZM201.279 71.0405L200.326 72.1992L200.33 72.2024L201.279 71.0405ZM203.684 71.0405L204.597 72.2303L204.6 72.228L203.684 71.0405ZM223.938 77.3494L225.369 76.8989L225.368 76.8977L223.938 77.3494ZM222.62 89.8561L223.961 90.5275L223.962 90.5258L222.62 89.8561ZM220.341 75.2087L221.659 74.4928L221.628 74.4361L221.593 74.3823L220.341 75.2087ZM204.189 72.8667L205.28 73.8967L205.28 73.8964L204.189 72.8667ZM200.26 72.8667L201.36 71.8467L201.359 71.8459L200.26 72.8667ZM183.396 77.3494L181.993 76.8195L181.993 76.8198L183.396 77.3494ZM185.534 90.7141L184.238 91.4691L184.239 91.4697L185.534 90.7141ZM200.26 105.331L201.107 104.093L201.105 104.092L200.26 105.331ZM204.189 105.816L205.027 107.06L205.034 107.055L204.189 105.816ZM220.341 89.8561L221.673 90.5464L221.674 90.5444L220.341 89.8561ZM202.886 107.211C202.583 107.348 202.388 107.331 202.176 107.261C201.867 107.16 201.586 106.972 201.058 106.64L199.462 109.18C200.203 109.646 201.912 110.945 204.123 109.944L202.886 107.211ZM201.056 106.638C194.389 102.468 188.469 97.7093 184.705 90.9735L182.087 92.4369C186.215 99.8257 192.639 104.912 199.464 109.182L201.056 106.638ZM184.705 90.9734C182.212 86.5123 180.772 82.1682 182.636 77.3896L179.841 76.2991C177.477 82.3579 179.461 87.7384 182.087 92.4369L184.705 90.9734ZM182.636 77.3904C184.713 72.0747 189.823 69.1091 195.397 70.0786L195.911 67.1229C188.885 65.901 182.421 69.698 179.842 76.2984L182.636 77.3904ZM195.401 70.0792C197.304 70.4054 198.936 71.0568 200.326 72.1992L202.231 69.8817C200.351 68.3361 198.199 67.5151 195.908 67.1223L195.401 70.0792ZM200.33 72.2024C200.917 72.6818 201.638 73.0505 202.495 73.0411C203.334 73.0319 204.036 72.6613 204.597 72.2303L202.771 69.8506C202.485 70.0702 202.403 70.042 202.462 70.0413C202.537 70.0405 202.479 70.084 202.227 69.8785L200.33 72.2024ZM204.6 72.228C210.311 67.8208 219.931 69.6444 222.508 77.8012L225.368 76.8977C222.072 66.4614 209.88 64.3643 202.768 69.8529L204.6 72.228ZM222.507 77.8C223.686 81.5417 223.128 85.478 221.277 89.1865L223.962 90.5258C226.084 86.2731 226.827 81.5292 225.369 76.8989L222.507 77.8ZM221.278 89.1848C217.276 97.1804 210.664 102.654 202.748 107.274L204.26 109.865C212.421 105.102 219.591 99.2587 223.961 90.5275L221.278 89.1848ZM221.593 74.3823C219.598 71.3607 216.254 69.4229 212.828 68.8625C209.396 68.301 205.683 69.0997 203.099 71.837L205.28 73.8964C207.028 72.0454 209.652 71.3828 212.344 71.8232C215.043 72.2647 217.608 73.7921 219.089 76.0351L221.593 74.3823ZM203.099 71.8368C202.546 72.4221 202.243 72.7588 201.995 72.9866C201.714 73.2437 201.843 73.0254 202.206 73.0171C202.588 73.0084 202.733 73.2377 202.464 72.997C202.225 72.7841 201.912 72.4424 201.36 71.8467L199.16 73.8868C199.648 74.4125 200.092 74.9011 200.466 75.2355C200.81 75.5422 201.426 76.0358 202.275 76.0163C203.106 75.9973 203.7 75.4934 204.022 75.1978C204.376 74.8729 204.814 74.3899 205.28 73.8967L203.099 71.8368ZM201.359 71.8459C198.496 68.7632 194.186 68.3945 190.511 69.4803C186.842 70.5642 183.355 73.2132 181.993 76.8195L184.799 77.8793C185.749 75.365 188.348 73.2473 191.361 72.3574C194.367 71.4693 197.333 71.9197 199.161 73.8875L201.359 71.8459ZM181.993 76.8198C180.038 81.9999 182.05 87.7132 184.238 91.4691L186.831 89.959C184.79 86.4558 183.33 81.773 184.799 77.879L181.993 76.8198ZM184.239 91.4697C187.707 97.4176 194.006 102.881 199.415 106.57L201.105 104.092C195.848 100.505 189.971 95.3445 186.83 89.9585L184.239 91.4697ZM199.413 106.569C200.067 107.017 201.064 107.341 201.952 107.487C202.419 107.564 202.93 107.604 203.427 107.567C203.901 107.531 204.501 107.414 205.027 107.06L203.352 104.571C203.433 104.517 203.421 104.559 203.201 104.575C203.005 104.59 202.742 104.576 202.439 104.527C201.789 104.42 201.266 104.202 201.107 104.093L199.413 106.569ZM205.034 107.055C210.976 103.009 218.103 97.433 221.673 90.5464L219.009 89.1658C215.816 95.3252 209.268 100.542 203.345 104.576L205.034 107.055ZM221.674 90.5444C222.746 88.4671 223.359 85.6342 223.417 82.7974C223.475 79.9599 222.982 76.9286 221.659 74.4928L219.023 75.9246C220.02 77.7604 220.469 80.2294 220.417 82.7361C220.366 85.2434 219.819 87.5984 219.008 89.1678L221.674 90.5444Z" fill="#E5F0E7" mask="url(#path-3-outside-1_110_206)"/>
<g filter="url(#filter0_d_110_206)">
<path d="M26.683 166.681C27.392 166.681 27.9666 167.256 27.9666 167.965V170.199C27.9666 170.908 27.392 171.483 26.683 171.483H21.1371C20.4282 171.483 19.8535 172.058 19.8535 172.767V192.515C19.8535 193.224 19.2788 193.799 18.5699 193.799H15.434C14.7251 193.799 14.1504 193.224 14.1504 192.515V172.767C14.1504 172.058 13.5757 171.483 12.8668 171.483H7.28408C6.57517 171.483 6.00049 170.908 6.00049 170.199V167.965C6.00049 167.256 6.57517 166.681 7.28408 166.681H26.683Z" fill="#5A5E63"/>
<path d="M38.141 178.584C36.0314 178.584 34.6149 179.271 33.8912 180.645C33.4865 181.417 33.2841 182.607 33.2841 184.214V192.515C33.2841 193.224 32.7094 193.799 32.0005 193.799H29.2878C28.5788 193.799 28.0042 193.224 28.0042 192.515V175.029C28.0042 174.321 28.5788 173.746 29.2878 173.746H32.2453C32.6666 173.746 33.0082 174.087 33.0082 174.509C33.0082 175.281 34.0716 175.59 34.5894 175.017C34.7759 174.811 34.954 174.639 35.1238 174.5C36.105 173.678 37.3806 173.268 38.9504 173.268C39.0271 173.268 39.0925 173.271 39.1467 173.279C39.1754 173.283 39.1837 173.286 39.2126 173.286C39.4463 173.289 39.6495 173.488 39.6495 173.721V177.79C39.6495 178.263 39.2387 178.625 38.7665 178.603C38.5089 178.59 38.3004 178.584 38.141 178.584Z" fill="#5A5E63"/>
<path d="M54.8463 191.629C54.8463 191.409 54.5969 191.332 54.4783 191.517C54.2821 191.824 54.0491 192.094 53.7792 192.327C52.9575 193.063 52.1603 193.566 51.3876 193.836C50.6272 194.105 49.7319 194.24 48.7016 194.24C45.7336 194.24 43.7344 193.173 42.7042 191.039C42.1277 189.862 41.8395 188.126 41.8395 185.833V175.029C41.8395 174.321 42.4142 173.746 43.1231 173.746H45.9279C46.6368 173.746 47.2115 174.321 47.2115 175.029V185.833C47.2115 186.973 47.3464 187.832 47.6162 188.408C48.0945 189.426 49.0328 189.935 50.431 189.935C52.2216 189.935 53.4481 189.212 54.1104 187.764C54.4538 186.98 54.6255 185.943 54.6255 184.655V175.029C54.6255 174.321 55.2002 173.746 55.9091 173.746H58.6587C59.3676 173.746 59.9423 174.321 59.9423 175.029V192.515C59.9423 193.224 59.3676 193.799 58.6587 193.799H55.582C55.1757 193.799 54.8463 193.469 54.8463 193.063V191.629Z" fill="#5A5E63"/>
<path d="M78.0826 174.666C79.3365 175.469 80.164 176.734 80.565 178.461C80.7362 179.198 80.1325 179.854 79.3756 179.854H76.6949C76.0399 179.854 75.5305 179.34 75.2637 178.742C75.1826 178.56 75.0859 178.397 74.9734 178.253C74.397 177.542 73.4158 177.186 72.0299 177.186C70.8893 177.186 70.0737 177.364 69.5831 177.72C69.1048 178.075 68.8656 178.492 68.8656 178.971C68.8656 179.572 69.1232 180.007 69.6383 180.277C70.1534 180.559 71.9747 181.043 75.1022 181.73C77.1872 182.221 78.751 182.963 79.7935 183.956C80.8237 184.962 81.3388 186.219 81.3388 187.728C81.3388 189.715 80.5968 191.34 79.1128 192.603C77.641 193.854 75.3598 194.479 72.2691 194.479C69.117 194.479 66.7867 193.817 65.2782 192.493C64.1034 191.443 63.3898 190.17 63.1373 188.675C63.0194 187.976 63.6084 187.397 64.3173 187.397H67.2099C67.8605 187.397 68.378 187.894 68.5844 188.511C68.708 188.881 68.8692 189.171 69.068 189.383C69.718 190.083 70.92 190.432 72.6738 190.432C73.704 190.432 74.5197 190.279 75.1206 189.972C75.7339 189.666 76.0405 189.206 76.0405 188.592C76.0405 188.004 75.7952 187.556 75.3046 187.249C74.814 186.943 72.9927 186.415 69.8407 185.667C67.5717 185.103 65.9711 184.398 65.039 183.552C64.1069 182.718 63.6408 181.516 63.6408 179.946C63.6408 178.094 64.3644 176.505 65.8117 175.181C67.2712 173.844 69.3194 173.176 71.9563 173.176C74.4583 173.176 76.5004 173.672 78.0826 174.666Z" fill="#5A5E63"/>
<path d="M93.1321 190.101C93.4205 190.082 93.6656 190.31 93.6656 190.599V192.746C93.6656 193.436 93.1195 194.003 92.4296 194.028L91.182 194.075C88.7046 194.161 87.012 193.731 86.1044 192.787C85.5157 192.186 85.2214 191.26 85.2214 190.009V178.948C85.2214 178.239 84.6467 177.664 83.9378 177.664H83.7086C82.9997 177.664 82.425 177.09 82.425 176.381V175.213C82.425 174.505 82.9997 173.93 83.7086 173.93H83.9378C84.6467 173.93 85.2214 173.355 85.2214 172.646V169.621C85.2214 168.912 85.7961 168.337 86.505 168.337H89.1258C89.8347 168.337 90.4094 168.912 90.4094 169.621V172.646C90.4094 173.355 90.984 173.93 91.6929 173.93H92.3821C93.091 173.93 93.6656 174.505 93.6656 175.213V176.381C93.6656 177.09 93.091 177.664 92.3821 177.664H91.6929C90.984 177.664 90.4094 178.239 90.4094 178.948V188.261C90.4094 189.083 90.5136 189.598 90.7221 189.807C90.9306 190.003 91.5684 190.101 92.6354 190.101C92.7948 190.101 92.9604 190.101 93.1321 190.101Z" fill="#5A5E63"/>
<path d="M112.006 187.912C112.772 187.912 113.37 188.589 113.072 189.295C112.759 190.035 112.264 190.782 111.585 191.536C109.868 193.486 107.464 194.461 104.373 194.461C101.822 194.461 99.5719 193.639 97.6218 191.996C95.6717 190.352 94.6966 187.679 94.6966 183.975C94.6966 180.504 95.5735 177.842 97.3274 175.99C99.0935 174.138 101.381 173.212 104.19 173.212C105.858 173.212 107.36 173.525 108.697 174.151C110.034 174.776 111.137 175.763 112.008 177.113C112.793 178.302 113.302 179.682 113.535 181.252C113.635 181.933 113.691 182.835 113.704 183.96C113.712 184.662 113.137 185.226 112.435 185.226H101.308C100.581 185.226 99.9826 185.834 100.122 186.548C100.379 187.869 100.962 188.838 101.871 189.457C102.595 189.96 103.466 190.211 104.484 190.211C105.563 190.211 106.44 189.905 107.115 189.291C107.321 189.106 107.513 188.88 107.692 188.615C107.968 188.205 108.404 187.912 108.898 187.912H112.006ZM106.89 181.767C107.63 181.767 108.239 181.134 108.037 180.421C107.827 179.681 107.477 179.081 106.986 178.621C106.238 177.897 105.306 177.536 104.19 177.536C102.975 177.536 102.031 177.916 101.356 178.676C100.958 179.134 100.649 179.688 100.428 180.341C100.179 181.076 100.794 181.767 101.57 181.767H106.89Z" fill="#5A5E63"/>
<path d="M133.464 166.718C134.173 166.718 134.748 167.293 134.748 168.002V192.515C134.748 193.224 134.173 193.799 133.464 193.799H130.274C129.93 193.799 129.652 193.52 129.652 193.177C129.652 192.553 128.76 192.27 128.31 192.702C127.925 193.07 127.52 193.375 127.095 193.615C126.138 194.154 124.948 194.424 123.526 194.424C121.183 194.424 119.208 193.48 117.602 191.591C116.007 189.69 115.21 187.255 115.21 184.287C115.21 180.866 115.995 178.173 117.565 176.211C119.147 174.249 121.257 173.268 123.894 173.268C125.108 173.268 126.187 173.537 127.131 174.077C127.941 174.529 129.431 173.989 129.431 173.062V168.002C129.431 167.293 130.006 166.718 130.715 166.718H133.464ZM120.619 183.901C120.619 185.753 120.987 187.231 121.723 188.335C122.446 189.451 123.55 190.009 125.034 190.009C126.518 190.009 127.647 189.457 128.419 188.353C129.192 187.249 129.578 185.821 129.578 184.067C129.578 181.614 128.959 179.86 127.72 178.805C126.96 178.167 126.077 177.848 125.071 177.848C123.538 177.848 122.41 178.431 121.686 179.596C120.975 180.749 120.619 182.184 120.619 183.901Z" fill="#5A5E63"/>
</g>
<g filter="url(#filter1_d_110_206)">
<path d="M87.5051 214.786C87.5051 215.212 87.1602 215.556 86.7349 215.556H84.8471C84.5715 215.556 84.3169 215.409 84.1795 215.17L79.7735 207.507C79.3804 206.824 78.3357 207.102 78.3357 207.891V214.786C78.3357 215.212 77.9909 215.556 77.5656 215.556H76.214C75.7887 215.556 75.4438 215.212 75.4438 214.786V201.474C75.4438 201.049 75.7887 200.704 76.214 200.704H78.2511C78.5277 200.704 78.7831 200.852 78.9201 201.093L83.1741 208.55C83.5655 209.236 84.6132 208.958 84.6132 208.168V201.474C84.6132 201.049 84.958 200.704 85.3833 200.704H86.7349C87.1602 200.704 87.5051 201.049 87.5051 201.474V214.786Z" fill="#5A5E63"/>
<path d="M90.1757 205.762C90.9347 204.795 92.2379 204.311 94.0852 204.311C95.2876 204.311 96.3557 204.55 97.2894 205.027C98.2232 205.504 98.69 206.404 98.69 207.727V212.765C98.69 213.115 98.6968 213.538 98.7102 214.035C98.7303 214.411 98.7874 214.666 98.8815 214.801C98.9495 214.898 99.0422 214.983 99.1594 215.055C99.2449 215.108 99.3047 215.198 99.3047 215.298C99.3047 215.441 99.189 215.556 99.0464 215.556H96.7054C96.389 215.556 96.0936 215.365 96.0245 215.057C96.015 215.014 96.0068 214.973 95.9997 214.932C95.9562 214.68 95.6314 214.565 95.4375 214.732C95.1643 214.967 94.868 215.178 94.5487 215.365C93.9307 215.721 93.2321 215.899 92.4529 215.899C91.4587 215.899 90.6358 215.617 89.9842 215.053C89.3393 214.482 89.0169 213.676 89.0169 212.634C89.0169 211.284 89.5375 210.307 90.5787 209.702C91.1497 209.373 91.9894 209.138 93.0977 208.997L94.0751 208.876C94.6058 208.809 94.9854 208.725 95.2137 208.624C95.6235 208.449 95.8284 208.177 95.8284 207.808C95.8284 207.358 95.6705 207.049 95.3548 206.881C95.0458 206.706 94.589 206.619 93.9845 206.619C93.306 206.619 92.8257 206.787 92.5436 207.123C92.4554 207.231 92.3801 207.357 92.3177 207.499C92.1653 207.846 91.8617 208.13 91.483 208.13H90.1897C89.7453 208.13 89.3856 207.753 89.4789 207.318C89.6084 206.715 89.8407 206.196 90.1757 205.762ZM92.3118 213.481C92.5805 213.702 92.9097 213.813 93.2993 213.813C93.9173 213.813 94.4849 213.632 95.0021 213.269C95.5261 212.906 95.7982 212.245 95.8183 211.284V210.839C95.8183 210.568 95.516 210.399 95.2641 210.498C95.0828 210.565 94.8309 210.629 94.5084 210.69L93.8635 210.811C93.259 210.918 92.8257 211.049 92.5637 211.203C92.1204 211.465 91.8987 211.872 91.8987 212.423C91.8987 212.913 92.0364 213.266 92.3118 213.481Z" fill="#5A5E63"/>
<path d="M106.006 206.699C105.032 206.699 104.363 207.113 104.001 207.939C103.813 208.375 103.718 208.933 103.718 209.611V214.786C103.718 215.212 103.374 215.556 102.948 215.556H101.627C101.202 215.556 100.857 215.212 100.857 214.786V205.364C100.857 204.938 101.202 204.594 101.627 204.594H103.26C103.463 204.594 103.628 204.758 103.628 204.962C103.628 205.327 104.13 205.485 104.389 205.227C104.486 205.131 104.582 205.047 104.676 204.976C105.267 204.533 106.016 204.311 106.923 204.311C108.058 204.311 108.985 204.61 109.704 205.208C110.429 205.799 110.792 206.783 110.792 208.16V214.786C110.792 215.212 110.447 215.556 110.022 215.556H108.62C108.195 215.556 107.85 215.212 107.85 214.786V208.876C107.85 208.298 107.772 207.855 107.618 207.546C107.336 206.982 106.798 206.699 106.006 206.699Z" fill="#5A5E63"/>
<path d="M118.208 206.699C117.234 206.699 116.566 207.113 116.203 207.939C116.015 208.375 115.921 208.933 115.921 209.611V214.786C115.921 215.212 115.576 215.556 115.151 215.556H113.83C113.404 215.556 113.059 215.212 113.059 214.786V205.364C113.059 204.938 113.404 204.594 113.83 204.594H115.462C115.666 204.594 115.83 204.758 115.83 204.962C115.83 205.327 116.333 205.485 116.592 205.227C116.689 205.131 116.785 205.047 116.878 204.976C117.47 204.533 118.219 204.311 119.125 204.311C120.261 204.311 121.188 204.61 121.906 205.208C122.632 205.799 122.995 206.783 122.995 208.16V214.786C122.995 215.212 122.65 215.556 122.224 215.556H120.823C120.397 215.556 120.052 215.212 120.052 214.786V208.876C120.052 208.298 119.975 207.855 119.821 207.546C119.538 206.982 119.001 206.699 118.208 206.699Z" fill="#5A5E63"/>
<path d="M128.947 210.11C129.166 210.851 130.218 210.843 130.427 210.099L131.815 205.136C131.909 204.803 132.212 204.573 132.557 204.573H133.942C134.472 204.573 134.843 205.097 134.669 205.597L131.258 215.375C130.532 217.457 129.958 218.747 129.534 219.244C129.111 219.748 128.265 220 126.995 220C126.74 220 126.535 219.997 126.381 219.99C125.989 219.99 125.685 219.655 125.685 219.264V218.026C125.685 217.828 125.851 217.672 126.048 217.682C126.33 217.696 126.599 217.686 126.854 217.652C127.109 217.619 127.324 217.541 127.499 217.421C127.667 217.306 127.822 217.068 127.963 216.705C128.11 216.342 128.171 216.121 128.144 216.04L124.474 205.599C124.298 205.098 124.67 204.573 125.201 204.573H126.732C127.074 204.573 127.374 204.798 127.471 205.125L128.947 210.11Z" fill="#5A5E63"/>
</g>
<defs>
<filter id="filter0_d_110_206" x="0.866131" y="166.681" width="139.016" height="38.0668" filterUnits="userSpaceOnUse" color-interpolation-filters="sRGB">
<feFlood flood-opacity="0" result="BackgroundImageFix"/>
<feColorMatrix in="SourceAlpha" type="matrix" values="0 0 0 0 0 0 0 0 0 0 0 0 0 0 0 0 0 0 127 0" result="hardAlpha"/>
<feOffset dy="5.13436"/>
<feGaussianBlur stdDeviation="2.56718"/>
<feComposite in2="hardAlpha" operator="out"/>
<feColorMatrix type="matrix" values="0 0 0 0 0 0 0 0 0 0 0 0 0 0 0 0 0 0 0.15 0"/>
<feBlend mode="normal" in2="BackgroundImageFix" result="effect1_dropShadow_110_206"/>
<feBlend mode="normal" in="SourceGraphic" in2="effect1_dropShadow_110_206" result="shape"/>
</filter>
<filter id="filter1_d_110_206" x="70.3095" y="200.704" width="69.5373" height="29.5646" filterUnits="userSpaceOnUse" color-interpolation-filters="sRGB">
<feFlood flood-opacity="0" result="BackgroundImageFix"/>
<feColorMatrix in="SourceAlpha" type="matrix" values="0 0 0 0 0 0 0 0 0 0 0 0 0 0 0 0 0 0 127 0" result="hardAlpha"/>
<feOffset dy="5.13436"/>
<feGaussianBlur stdDeviation="2.56718"/>
<feComposite in2="hardAlpha" operator="out"/>
<feColorMatrix type="matrix" values="0 0 0 0 0 0 0 0 0 0 0 0 0 0 0 0 0 0 0.15 0"/>
<feBlend mode="normal" in2="BackgroundImageFix" result="effect1_dropShadow_110_206"/>
<feBlend mode="normal" in="SourceGraphic" in2="effect1_dropShadow_110_206" result="shape"/>
</filter>
</defs>
</svg>
