<svg width="22" height="22" viewBox="0 0 22 22" fill="none" xmlns="http://www.w3.org/2000/svg">
<path d="M11.2539 1.8717C11.0697 1.71497 10.8357 1.6289 10.5938 1.6289C10.352 1.6289 10.118 1.71497 9.93376 1.8717L1.98838 8.62568C1.87589 8.7214 1.78555 8.84043 1.72363 8.97453C1.66172 9.10863 1.62971 9.25459 1.62982 9.40229V19.9627C1.62982 20.0708 1.67275 20.1744 1.74916 20.2508C1.82558 20.3272 1.92921 20.3702 2.03728 20.3702H6.11183C6.21989 20.3702 6.32353 20.3272 6.39995 20.2508C6.47636 20.1744 6.51929 20.0708 6.51929 19.9627V14.2583C6.51929 13.718 6.73393 13.1998 7.11599 12.8178C7.49805 12.4357 8.01624 12.2211 8.55656 12.2211H12.6344C12.9019 12.2211 13.1668 12.2738 13.414 12.3761C13.6612 12.4785 13.8858 12.6286 14.0749 12.8178C14.2641 13.007 14.4142 13.2315 14.5166 13.4787C14.619 13.7259 14.6717 13.9908 14.6717 14.2583V19.9627C14.6717 20.0708 14.7146 20.1744 14.791 20.2508C14.8674 20.3272 14.971 20.3702 15.0791 20.3702H19.1504C19.2585 20.3702 19.3621 20.3272 19.4385 20.2508C19.5149 20.1744 19.5579 20.0708 19.5579 19.9627V9.40148C19.5579 9.25391 19.5258 9.10811 19.4639 8.97416C19.402 8.84021 19.3117 8.72131 19.1993 8.62568L11.2539 1.8717ZM8.87845 0.630593C9.35731 0.223515 9.96533 0 10.5938 0C11.2223 0 11.8304 0.223515 12.3092 0.630593L20.2546 7.38376C20.5471 7.63237 20.782 7.94159 20.9431 8.28998C21.1042 8.63838 21.1877 9.01763 21.1877 9.40148V19.9627C21.1877 20.503 20.973 21.0212 20.591 21.4033C20.2089 21.7854 19.6907 22 19.1504 22H15.0791C14.5388 22 14.0206 21.7854 13.6385 21.4033C13.2565 21.0212 13.0418 20.503 13.0418 19.9627V14.2583C13.0418 14.1503 12.9989 14.0466 12.9225 13.9702C12.8461 13.8938 12.7424 13.8509 12.6344 13.8509H8.55656C8.4485 13.8509 8.34486 13.8938 8.26845 13.9702C8.19204 14.0466 8.14911 14.1503 8.14911 14.2583V19.9627C8.14911 20.503 7.93447 21.0212 7.5524 21.4033C7.17034 21.7854 6.65215 22 6.11183 22H2.03728C1.49696 22 0.978768 21.7854 0.596705 21.4033C0.214641 21.0212 0 20.503 0 19.9627V9.40148C2.14411e-05 9.01763 0.0834782 8.63838 0.244591 8.28998C0.405703 7.94159 0.64062 7.63237 0.933073 7.38376L8.87845 0.630593Z" fill="#122023"/>
</svg>
