<svg width="32" height="22" viewBox="0 0 32 22" fill="none" xmlns="http://www.w3.org/2000/svg">
<path fill-rule="evenodd" clip-rule="evenodd" d="M31.3125 2.25C31.3125 2.5981 31.1742 2.93194 30.9281 3.17808C30.6819 3.42422 30.3481 3.5625 30 3.5625H2C1.6519 3.5625 1.31806 3.42422 1.07192 3.17808C0.825781 2.93194 0.6875 2.5981 0.6875 2.25C0.6875 1.9019 0.825781 1.56806 1.07192 1.32192C1.31806 1.07578 1.6519 0.9375 2 0.9375H30C30.3481 0.9375 30.6819 1.07578 30.9281 1.32192C31.1742 1.56806 31.3125 1.9019 31.3125 2.25ZM31.3125 11C31.3125 11.3481 31.1742 11.6819 30.9281 11.9281C30.6819 12.1742 30.3481 12.3125 30 12.3125H2C1.6519 12.3125 1.31806 12.1742 1.07192 11.9281C0.825781 11.6819 0.6875 11.3481 0.6875 11C0.6875 10.6519 0.825781 10.3181 1.07192 10.0719C1.31806 9.82578 1.6519 9.6875 2 9.6875H30C30.3481 9.6875 30.6819 9.82578 30.9281 10.0719C31.1742 10.3181 31.3125 10.6519 31.3125 11ZM31.3125 19.75C31.3125 20.0981 31.1742 20.4319 30.9281 20.6781C30.6819 20.9242 30.3481 21.0625 30 21.0625H2C1.6519 21.0625 1.31806 20.9242 1.07192 20.6781C0.825781 20.4319 0.6875 20.0981 0.6875 19.75C0.6875 19.4019 0.825781 19.0681 1.07192 18.8219C1.31806 18.5758 1.6519 18.4375 2 18.4375H30C30.3481 18.4375 30.6819 18.5758 30.9281 18.8219C31.1742 19.0681 31.3125 19.4019 31.3125 19.75Z" fill="black"/>
</svg>
