<svg width="25" height="23" viewBox="0 0 25 23" fill="none" xmlns="http://www.w3.org/2000/svg">
<path d="M10.125 20.7812C10.125 21.115 10.026 21.4413 9.8406 21.7188C9.65518 21.9963 9.39163 22.2126 9.08328 22.3403C8.77493 22.468 8.43563 22.5014 8.10828 22.4363C7.78094 22.3712 7.48026 22.2105 7.24426 21.9745C7.00826 21.7385 6.84754 21.4378 6.78242 21.1105C6.71731 20.7831 6.75073 20.4438 6.87845 20.1355C7.00618 19.8271 7.22247 19.5636 7.49998 19.3781C7.77748 19.1927 8.10374 19.0938 8.4375 19.0938C8.88505 19.0938 9.31427 19.2715 9.63074 19.588C9.94721 19.9045 10.125 20.3337 10.125 20.7812ZM19.4062 19.0938C19.0725 19.0938 18.7462 19.1927 18.4687 19.3781C18.1912 19.5636 17.9749 19.8271 17.8472 20.1355C17.7195 20.4438 17.6861 20.7831 17.7512 21.1105C17.8163 21.4378 17.977 21.7385 18.213 21.9745C18.449 22.2105 18.7497 22.3712 19.077 22.4363C19.4044 22.5014 19.7437 22.468 20.052 22.3403C20.3604 22.2126 20.6239 21.9963 20.8094 21.7188C20.9948 21.4413 21.0938 21.115 21.0938 20.7812C21.0938 20.3337 20.916 19.9045 20.5995 19.588C20.283 19.2715 19.8538 19.0938 19.4062 19.0938ZM24.4318 5.8416L21.4228 15.6196C21.2652 16.1379 20.9447 16.5917 20.5089 16.9135C20.0731 17.2354 19.5451 17.4081 19.0034 17.4062H8.86676C8.31724 17.4042 7.78317 17.2242 7.34454 16.8931C6.9059 16.5621 6.5863 16.0979 6.43359 15.57L2.61773 2.21875H0.84375C0.619974 2.21875 0.405362 2.12986 0.247129 1.97162C0.0888949 1.81339 0 1.59878 0 1.375C0 1.15122 0.0888949 0.936612 0.247129 0.778379C0.405362 0.620145 0.619974 0.53125 0.84375 0.53125H2.61773C2.98414 0.532465 3.3403 0.652316 3.63291 0.872861C3.92551 1.09341 4.13882 1.40278 4.2409 1.75469L5.09625 4.75H23.625C23.757 4.74995 23.8872 4.78089 24.0051 4.84033C24.123 4.89977 24.2254 4.98605 24.3038 5.09223C24.3823 5.19841 24.4348 5.32153 24.457 5.45168C24.4792 5.58184 24.4706 5.71539 24.4318 5.8416ZM22.4828 6.4375H5.57824L8.0557 15.107C8.10611 15.2832 8.21252 15.4383 8.35885 15.5486C8.50518 15.659 8.68347 15.7187 8.86676 15.7188H19.0034C19.1839 15.7188 19.3597 15.661 19.5049 15.5537C19.6502 15.4464 19.7572 15.2954 19.8102 15.1229L22.4828 6.4375Z" fill="black"/>
</svg>
