<svg width="27" height="20" viewBox="0 0 27 20" fill="none" xmlns="http://www.w3.org/2000/svg">
<path d="M5.86198 3.37583L4.76558 6.66502H9.99762V1.66625H8.23306C7.70842 1.6663 7.1971 1.83144 6.77154 2.13828C6.34598 2.44511 6.02776 2.87807 5.86198 3.37583ZM4.21072 8.33127L4.20572 8.34793L3.7625 8.45791L3.55922 8.50789C3.0183 8.6432 2.53816 8.95549 2.19518 9.3951C1.85219 9.83471 1.66604 10.3764 1.66635 10.934V13.7466C1.66635 14.0132 1.74966 14.2631 1.89463 14.4664C2.19283 13.6028 2.76668 12.8612 3.52781 12.3558C4.28893 11.8504 5.19511 11.6092 6.10677 11.6694C7.01843 11.7297 7.885 12.088 8.57302 12.6891C9.26103 13.2903 9.73232 14.1009 9.91431 14.9963H16.7459C16.9279 14.1009 17.3992 13.2903 18.0872 12.6891C18.7753 12.088 19.6418 11.7297 20.5535 11.6694C21.4651 11.6092 22.3713 11.8504 23.1324 12.3558C23.8936 12.8612 24.4674 13.6028 24.7656 14.4664C24.9144 14.2559 24.9942 14.0044 24.9939 13.7466V11.7254C24.9941 11.1744 24.8122 10.6388 24.4765 10.2019C24.1408 9.76492 23.6701 9.45115 23.1377 9.30936L19.4686 8.33127H4.21072ZM18.1156 6.66502L16.0528 2.9526C15.8366 2.56313 15.5202 2.23851 15.1365 2.01235C14.7527 1.78619 14.3154 1.6667 13.87 1.66625H11.6639V6.66502H18.1156ZM26.6602 13.7466C26.6602 14.9246 25.9603 15.9394 24.9556 16.3993C24.8221 17.3741 24.3479 18.2703 23.6169 18.929C22.886 19.5877 21.9454 19.9663 20.9619 19.9979C19.9785 20.0294 19.0156 19.7118 18.2439 19.1013C17.4722 18.4908 16.9416 17.6269 16.7459 16.6625H9.91431C9.71868 17.6269 9.18802 18.4908 8.41633 19.1013C7.64465 19.7118 6.68177 20.0294 5.69831 19.9979C4.71485 19.9663 3.7743 19.5877 3.04332 18.929C2.31234 18.2703 1.83811 17.3741 1.70468 16.3993C1.19616 16.167 0.765125 15.7935 0.462912 15.3232C0.160698 14.8529 4.76837e-05 14.3056 9.72748e-05 13.7466V10.934C6.29425e-05 10.0484 0.282248 9.18586 0.805693 8.47155C1.32914 7.75725 2.0666 7.22834 2.91104 6.96161L4.28237 2.84763C4.55881 2.0188 5.08887 1.29787 5.79756 0.786837C6.50624 0.275807 7.35767 0.000547689 8.23139 7.97704e-07H13.8683C14.6117 -0.000459164 15.3416 0.198002 15.9824 0.574794C16.6232 0.951585 17.1515 1.49298 17.5124 2.1428L20.0785 6.76999L23.5659 7.69976C24.4533 7.93593 25.2377 8.45866 25.7973 9.18668C26.3568 9.9147 26.6602 10.8072 26.6602 11.7254V13.7466ZM5.83199 13.33C5.16911 13.33 4.53338 13.5934 4.06466 14.0621C3.59593 14.5308 3.33261 15.1665 3.33261 15.8294C3.33261 16.4923 3.59593 17.128 4.06466 17.5967C4.53338 18.0655 5.16911 18.3288 5.83199 18.3288C6.49486 18.3288 7.13059 18.0655 7.59931 17.5967C8.06804 17.128 8.33137 16.4923 8.33137 15.8294C8.33137 15.1665 8.06804 14.5308 7.59931 14.0621C7.13059 13.5934 6.49486 13.33 5.83199 13.33ZM20.8283 13.33C20.1654 13.33 19.5297 13.5934 19.0609 14.0621C18.5922 14.5308 18.3289 15.1665 18.3289 15.8294C18.3289 16.4923 18.5922 17.128 19.0609 17.5967C19.5297 18.0655 20.1654 18.3288 20.8283 18.3288C21.4911 18.3288 22.1269 18.0655 22.5956 17.5967C23.0643 17.128 23.3276 16.4923 23.3276 15.8294C23.3276 15.1665 23.0643 14.5308 22.5956 14.0621C22.1269 13.5934 21.4911 13.33 20.8283 13.33Z" fill="#122023"/>
</svg>
