<svg width="21" height="24" viewBox="0 0 21 24" fill="none" xmlns="http://www.w3.org/2000/svg">
<path d="M6.15908 9.71196C6.2225 9.89585 6.20763 10.0965 6.11776 10.2698C6.02788 10.4432 5.87034 10.575 5.67972 10.6364C5.44684 10.7074 5.23083 10.8222 5.04416 10.9741C4.85748 11.126 4.70383 11.312 4.59207 11.5214C4.30992 12.0319 4.11878 12.8716 4.29627 14.2422C4.32101 14.4348 4.26539 14.629 4.14164 14.7821C4.01789 14.9351 3.83614 15.0345 3.63639 15.0584C3.43664 15.0823 3.23524 15.0286 3.0765 14.9093C2.91776 14.79 2.81468 14.6147 2.78994 14.4221C2.5897 12.8672 2.77628 11.6955 3.25412 10.8339C3.73955 9.95625 4.4783 9.48084 5.19885 9.24973C5.29337 9.21922 5.3932 9.20699 5.49263 9.21371C5.59206 9.22044 5.68914 9.246 5.77832 9.28893C5.8675 9.33186 5.94703 9.39132 6.01236 9.4639C6.0777 9.53649 6.12755 9.62078 6.15908 9.71196ZM13.6437 1.8598C13.7408 1.83143 13.8309 1.78458 13.9089 1.72202C13.9868 1.65946 14.051 1.58247 14.0976 1.49558C14.1441 1.4087 14.1721 1.31369 14.1799 1.21619C14.1877 1.11868 14.1752 1.02066 14.143 0.92791C14.1109 0.835162 14.0597 0.749576 13.9927 0.676214C13.9256 0.602852 13.844 0.543205 13.7526 0.5008C13.6612 0.458395 13.5619 0.434094 13.4606 0.429334C13.3593 0.424574 13.2581 0.439452 13.1628 0.473088C11.7399 0.929473 10.854 2.05581 10.3322 3.2626C10.2621 3.42572 10.1979 3.59111 10.1396 3.75848C9.85539 3.23939 9.4918 2.76452 9.061 2.34983C8.47794 1.78637 7.78151 1.34389 7.01455 1.04957C6.24758 0.755246 5.42629 0.615316 4.60117 0.638381C3.72134 0.661786 3.01899 1.34051 2.99472 2.18746C2.97061 2.99369 3.12005 3.79599 3.43362 4.54374C3.74719 5.29148 4.21808 5.96844 4.81658 6.53189C3.54234 6.79806 2.39081 7.45273 1.53241 8.39902C0.674006 9.34531 0.154343 10.533 0.0503234 11.7862L0.0412216 11.8944C-0.159043 14.3039 0.373378 16.7174 1.57334 18.8397L2.11944 19.8022C2.13461 19.827 2.14978 19.8519 2.16799 19.8753L3.68494 21.9261C4.02874 22.3904 4.47332 22.7769 4.98775 23.0587C5.50217 23.3405 6.07408 23.5109 6.66371 23.5579C7.25333 23.605 7.84651 23.5276 8.40198 23.3312C8.95745 23.1348 9.46187 22.824 9.88016 22.4205C9.9444 22.3586 10.0207 22.3094 10.1046 22.2759C10.1885 22.2423 10.2785 22.2251 10.3694 22.2251C10.4602 22.2251 10.5502 22.2423 10.6341 22.2759C10.7181 22.3094 10.7944 22.3586 10.8586 22.4205C11.2769 22.824 11.7813 23.1348 12.3368 23.3312C12.8922 23.5276 13.4854 23.605 14.075 23.5579C14.6647 23.5109 15.2366 23.3405 15.751 23.0587C16.2654 22.7769 16.71 22.3904 17.0538 21.9261L18.5708 19.8768C18.5885 19.8528 18.6047 19.8279 18.6193 19.8022L19.1639 18.8397C20.3639 16.7174 20.8963 14.3039 20.696 11.8944L20.6884 11.7862C20.6213 10.9784 20.3809 10.1929 19.9824 9.47941C19.584 8.76593 19.0362 8.14004 18.3738 7.64139C17.7113 7.14275 16.9487 6.78223 16.1342 6.58268C15.3197 6.38313 14.4711 6.3489 13.6422 6.48216L11.1286 6.88588C11.1438 5.88974 11.3258 4.76925 11.7339 3.8243C12.1586 2.83693 12.7897 2.1348 13.6422 1.8598H13.6437ZM8.4254 6.69572L8.19179 6.65769C7.30101 6.49197 6.48239 6.07205 5.84204 5.45237C5.40375 5.03075 5.05962 4.52708 4.83082 3.97237C4.60202 3.41767 4.49341 2.82367 4.51167 2.22695C4.51207 2.19332 4.5261 2.16117 4.55076 2.13739C4.57543 2.1136 4.60877 2.10007 4.64365 2.09969C5.26257 2.08227 5.87864 2.18723 6.4539 2.40811C7.02915 2.62899 7.55142 2.96111 7.98852 3.38401C8.90931 4.27191 9.35378 5.44359 9.31889 6.60942C9.31849 6.64305 9.30446 6.6752 9.2798 6.69899C9.25513 6.72277 9.22179 6.7363 9.18691 6.73668C8.93234 6.74346 8.67762 6.72976 8.4254 6.69572ZM7.92784 8.09852L8.19028 8.14094L9.37198 8.3311C10.0324 8.43722 10.7064 8.43722 11.3668 8.3311L13.891 7.92445C14.5128 7.82445 15.1493 7.8501 15.7603 7.99978C16.3712 8.14947 16.9433 8.41991 17.4402 8.79397C17.937 9.16804 18.3479 9.63757 18.6467 10.1728C18.9455 10.708 19.1258 11.2973 19.176 11.9032L19.1851 12.0114C19.3616 14.1379 18.8914 16.2678 17.832 18.1405L17.3102 19.062L15.819 21.0748C15.6034 21.3663 15.3244 21.6089 15.0017 21.7859C14.6789 21.9629 14.32 22.0699 13.9499 22.0996C13.5799 22.1292 13.2076 22.0808 12.859 21.9576C12.5103 21.8344 12.1937 21.6395 11.9311 21.3864C11.726 21.1884 11.4824 21.0313 11.2143 20.9242C10.9462 20.817 10.6588 20.7619 10.3686 20.7619C10.0784 20.7619 9.79104 20.817 9.52294 20.9242C9.25485 21.0313 9.01128 21.1884 8.80616 21.3864C8.54358 21.6392 8.22704 21.834 7.87854 21.957C7.53004 22.08 7.15794 22.1284 6.7881 22.0987C6.41826 22.0691 6.05955 21.9621 5.7369 21.7853C5.41425 21.6085 5.1354 21.366 4.91973 21.0748L3.42857 19.062L2.90674 18.1405C1.84735 16.2678 1.37712 14.1379 1.55362 12.0114L1.56272 11.9032C1.61299 11.2974 1.79319 10.7083 2.09191 10.1732C2.39064 9.63808 2.80136 9.16863 3.29807 8.79459C3.79478 8.42055 4.36664 8.15007 4.97742 8.00028C5.5882 7.8505 6.22459 7.82468 6.84626 7.92445L7.92784 8.09852Z" fill="white"/>
</svg>
