<svg width="23" height="21" viewBox="0 0 23 21" fill="none" xmlns="http://www.w3.org/2000/svg">
<path d="M11.1103 7.8028V9.38713H21.408C21.5336 9.38735 21.6574 9.41729 21.7697 9.4746C21.8821 9.53191 21.9799 9.61503 22.0555 9.71743C22.131 9.81982 22.1823 9.93872 22.2053 10.0648C22.2283 10.1908 22.2224 10.3206 22.188 10.4439L20.2461 17.3901C19.9551 18.4302 19.3401 19.3451 18.4942 19.9965C17.6483 20.6479 16.6175 21.0001 15.558 21H6.66272C5.60318 21.0001 4.57244 20.6479 3.72653 19.9965C2.88063 19.3451 2.26562 18.4302 1.97459 17.3901L0.031095 10.4439C-0.00331669 10.3206 -0.00926045 10.1908 0.0137306 10.0648C0.0367217 9.93872 0.0880215 9.81982 0.163602 9.71743C0.239182 9.61503 0.336985 9.53191 0.449331 9.4746C0.561676 9.41729 0.685506 9.38735 0.811095 9.38713H9.48534V0.830098C9.48524 0.686054 9.52188 0.544465 9.59166 0.419268C9.66144 0.294072 9.76195 0.189585 9.88329 0.116091C10.0046 0.0425969 10.1426 0.00263037 10.2837 0.00012546C10.4248 -0.00237945 10.5641 0.0326636 10.6878 0.101805L11.0405 0.299224L11.1103 0.262726V0.33738L16.9928 3.61387C17.1254 3.68762 17.2351 3.79761 17.3099 3.93149C17.3846 4.06537 17.4213 4.21785 17.4159 4.37185C17.4105 4.52584 17.3632 4.67525 17.2793 4.80334C17.1954 4.93142 17.0782 5.03311 16.9408 5.097L11.1103 7.8028ZM11.1103 5.98124L14.7861 4.2758L11.1103 2.22862V5.98124ZM11.1103 11.0461H1.89009L2.35322 12.7051H19.8691L20.3322 11.0461H11.1103ZM2.81797 14.3641L3.53784 16.9355C3.73203 17.6286 4.14204 18.2383 4.70585 18.6723C5.26966 19.1063 5.95659 19.3411 6.66272 19.341H15.558C16.2641 19.3411 16.951 19.1063 17.5148 18.6723C18.0786 18.2383 18.4887 17.6286 18.6828 16.9355L19.4027 14.3641H2.81797Z" fill="#122023"/>
</svg>
