<svg width="52" height="52" viewBox="0 0 52 52" fill="none" xmlns="http://www.w3.org/2000/svg">
<rect width="52" height="52" fill="#151515"/>
<path d="M23.3203 23.3789V40H16.7383V18.8672H22.9102L23.3203 23.3789ZM22.5391 28.7109L20.9961 28.75C20.9961 27.1354 21.1914 25.6966 21.582 24.4336C21.9727 23.1576 22.526 22.0768 23.2422 21.1914C23.9583 20.306 24.8112 19.6354 25.8008 19.1797C26.8034 18.7109 27.9167 18.4766 29.1406 18.4766C30.1172 18.4766 31.0091 18.6198 31.8164 18.9062C32.6367 19.1927 33.3398 19.6549 33.9258 20.293C34.5247 20.931 34.9805 21.7773 35.293 22.832C35.6185 23.8737 35.7812 25.1628 35.7812 26.6992V40H29.1602V26.6797C29.1602 25.8333 29.043 25.1888 28.8086 24.7461C28.5742 24.2904 28.2357 23.9779 27.793 23.8086C27.3503 23.6393 26.8099 23.5547 26.1719 23.5547C25.4948 23.5547 24.9219 23.6849 24.4531 23.9453C23.9844 24.2057 23.6068 24.5703 23.3203 25.0391C23.0469 25.4948 22.8451 26.0352 22.7148 26.6602C22.5977 27.2852 22.5391 27.9688 22.5391 28.7109Z" fill="white"/>
</svg>
