<svg width="116" height="19" viewBox="0 0 116 19" fill="none" xmlns="http://www.w3.org/2000/svg">
<path d="M3.61719 8.02734V18H0.242188V5.32031H3.40625L3.61719 8.02734ZM3.125 11.2148H2.21094C2.21094 10.2773 2.33203 9.43359 2.57422 8.68359C2.81641 7.92578 3.15625 7.28125 3.59375 6.75C4.03125 6.21094 4.55078 5.80078 5.15234 5.51953C5.76172 5.23047 6.44141 5.08594 7.19141 5.08594C7.78516 5.08594 8.32812 5.17188 8.82031 5.34375C9.3125 5.51562 9.73438 5.78906 10.0859 6.16406C10.4453 6.53906 10.7188 7.03516 10.9062 7.65234C11.1016 8.26953 11.1992 9.02344 11.1992 9.91406V18H7.80078V9.90234C7.80078 9.33984 7.72266 8.90234 7.56641 8.58984C7.41016 8.27734 7.17969 8.05859 6.875 7.93359C6.57812 7.80078 6.21094 7.73438 5.77344 7.73438C5.32031 7.73438 4.92578 7.82422 4.58984 8.00391C4.26172 8.18359 3.98828 8.43359 3.76953 8.75391C3.55859 9.06641 3.39844 9.43359 3.28906 9.85547C3.17969 10.2773 3.125 10.7305 3.125 11.2148ZM20.6016 18.2344C19.6172 18.2344 18.7344 18.0781 17.9531 17.7656C17.1719 17.4453 16.5078 17.0039 15.9609 16.4414C15.4219 15.8789 15.0078 15.2266 14.7188 14.4844C14.4297 13.7344 14.2852 12.9375 14.2852 12.0938V11.625C14.2852 10.6641 14.4219 9.78516 14.6953 8.98828C14.9688 8.19141 15.3594 7.5 15.8672 6.91406C16.3828 6.32812 17.0078 5.87891 17.7422 5.56641C18.4766 5.24609 19.3047 5.08594 20.2266 5.08594C21.125 5.08594 21.9219 5.23438 22.6172 5.53125C23.3125 5.82812 23.8945 6.25 24.3633 6.79688C24.8398 7.34375 25.1992 8 25.4414 8.76562C25.6836 9.52344 25.8047 10.3672 25.8047 11.2969V12.7031H15.7266V10.4531H22.4883V10.1953C22.4883 9.72656 22.4023 9.30859 22.2305 8.94141C22.0664 8.56641 21.8164 8.26953 21.4805 8.05078C21.1445 7.83203 20.7148 7.72266 20.1914 7.72266C19.7461 7.72266 19.3633 7.82031 19.043 8.01562C18.7227 8.21094 18.4609 8.48438 18.2578 8.83594C18.0625 9.1875 17.9141 9.60156 17.8125 10.0781C17.7188 10.5469 17.6719 11.0625 17.6719 11.625V12.0938C17.6719 12.6016 17.7422 13.0703 17.8828 13.5C18.0312 13.9297 18.2383 14.3008 18.5039 14.6133C18.7773 14.9258 19.1055 15.168 19.4883 15.3398C19.8789 15.5117 20.3203 15.5977 20.8125 15.5977C21.4219 15.5977 21.9883 15.4805 22.5117 15.2461C23.043 15.0039 23.5 14.6406 23.8828 14.1562L25.5234 15.9375C25.2578 16.3203 24.8945 16.6875 24.4336 17.0391C23.9805 17.3906 23.4336 17.6797 22.793 17.9062C22.1523 18.125 21.4219 18.2344 20.6016 18.2344ZM32.2891 5.32031V18H28.9023V5.32031H32.2891ZM28.6914 2.01562C28.6914 1.52344 28.8633 1.11719 29.207 0.796875C29.5508 0.476563 30.0117 0.316406 30.5898 0.316406C31.1602 0.316406 31.6172 0.476563 31.9609 0.796875C32.3125 1.11719 32.4883 1.52344 32.4883 2.01562C32.4883 2.50781 32.3125 2.91406 31.9609 3.23438C31.6172 3.55469 31.1602 3.71484 30.5898 3.71484C30.0117 3.71484 29.5508 3.55469 29.207 3.23438C28.8633 2.91406 28.6914 2.50781 28.6914 2.01562ZM42.2891 5.32031V7.71094H34.9062V5.32031H42.2891ZM36.7344 2.19141H40.1094V14.1797C40.1094 14.5469 40.1562 14.8281 40.25 15.0234C40.3516 15.2188 40.5 15.3555 40.6953 15.4336C40.8906 15.5039 41.1367 15.5391 41.4336 15.5391C41.6445 15.5391 41.832 15.5312 41.9961 15.5156C42.168 15.4922 42.3125 15.4688 42.4297 15.4453L42.4414 17.9297C42.1523 18.0234 41.8398 18.0977 41.5039 18.1523C41.168 18.207 40.7969 18.2344 40.3906 18.2344C39.6484 18.2344 39 18.1133 38.4453 17.8711C37.8984 17.6211 37.4766 17.2227 37.1797 16.6758C36.8828 16.1289 36.7344 15.4102 36.7344 14.5195V2.19141ZM48.5859 8.08594V18H45.2109V5.32031H48.3867L48.5859 8.08594ZM52.4062 5.23828L52.3477 8.36719C52.1836 8.34375 51.9844 8.32422 51.75 8.30859C51.5234 8.28516 51.3164 8.27344 51.1289 8.27344C50.6523 8.27344 50.2383 8.33594 49.8867 8.46094C49.543 8.57812 49.2539 8.75391 49.0195 8.98828C48.793 9.22266 48.6211 9.50781 48.5039 9.84375C48.3945 10.1797 48.332 10.5625 48.3164 10.9922L47.6367 10.7812C47.6367 9.96094 47.7188 9.20703 47.8828 8.51953C48.0469 7.82422 48.2852 7.21875 48.5977 6.70312C48.918 6.1875 49.3086 5.78906 49.7695 5.50781C50.2305 5.22656 50.7578 5.08594 51.3516 5.08594C51.5391 5.08594 51.7305 5.10156 51.9258 5.13281C52.1211 5.15625 52.2812 5.19141 52.4062 5.23828ZM61.4453 15.1406V9.49219C61.4453 9.08594 61.3789 8.73828 61.2461 8.44922C61.1133 8.15234 60.9062 7.92188 60.625 7.75781C60.3516 7.59375 59.9961 7.51172 59.5586 7.51172C59.1836 7.51172 58.8594 7.57812 58.5859 7.71094C58.3125 7.83594 58.1016 8.01953 57.9531 8.26172C57.8047 8.49609 57.7305 8.77344 57.7305 9.09375H54.3555C54.3555 8.55469 54.4805 8.04297 54.7305 7.55859C54.9805 7.07422 55.3438 6.64844 55.8203 6.28125C56.2969 5.90625 56.8633 5.61328 57.5195 5.40234C58.1836 5.19141 58.9258 5.08594 59.7461 5.08594C60.7305 5.08594 61.6055 5.25 62.3711 5.57812C63.1367 5.90625 63.7383 6.39844 64.1758 7.05469C64.6211 7.71094 64.8438 8.53125 64.8438 9.51562V14.9414C64.8438 15.6367 64.8867 16.207 64.9727 16.6523C65.0586 17.0898 65.1836 17.4727 65.3477 17.8008V18H61.9375C61.7734 17.6562 61.6484 17.2266 61.5625 16.7109C61.4844 16.1875 61.4453 15.6641 61.4453 15.1406ZM61.8906 10.2773L61.9141 12.1875H60.0273C59.582 12.1875 59.1953 12.2383 58.8672 12.3398C58.5391 12.4414 58.2695 12.5859 58.0586 12.7734C57.8477 12.9531 57.6914 13.1641 57.5898 13.4062C57.4961 13.6484 57.4492 13.9141 57.4492 14.2031C57.4492 14.4922 57.5156 14.7539 57.6484 14.9883C57.7812 15.2148 57.9727 15.3945 58.2227 15.5273C58.4727 15.6523 58.7656 15.7148 59.1016 15.7148C59.6094 15.7148 60.0508 15.6133 60.4258 15.4102C60.8008 15.207 61.0898 14.957 61.293 14.6602C61.5039 14.3633 61.6133 14.082 61.6211 13.8164L62.5117 15.2461C62.3867 15.5664 62.2148 15.8984 61.9961 16.2422C61.7852 16.5859 61.5156 16.9102 61.1875 17.2148C60.8594 17.5117 60.4648 17.7578 60.0039 17.9531C59.543 18.1406 58.9961 18.2344 58.3633 18.2344C57.5586 18.2344 56.8281 18.0742 56.1719 17.7539C55.5234 17.4258 55.0078 16.9766 54.625 16.4062C54.25 15.8281 54.0625 15.1719 54.0625 14.4375C54.0625 13.7734 54.1875 13.1836 54.4375 12.668C54.6875 12.1523 55.0547 11.7188 55.5391 11.3672C56.0312 11.0078 56.6445 10.7383 57.3789 10.5586C58.1133 10.3711 58.9648 10.2773 59.9336 10.2773H61.8906ZM72.0078 0V18H68.6211V0H72.0078ZM82.6523 14.4961C82.6523 14.2539 82.582 14.0352 82.4414 13.8398C82.3008 13.6445 82.0391 13.4648 81.6562 13.3008C81.2812 13.1289 80.7383 12.9727 80.0273 12.832C79.3867 12.6914 78.7891 12.5156 78.2344 12.3047C77.6875 12.0859 77.2109 11.8242 76.8047 11.5195C76.4062 11.2148 76.0938 10.8555 75.8672 10.4414C75.6406 10.0195 75.5273 9.53906 75.5273 9C75.5273 8.46875 75.6406 7.96875 75.8672 7.5C76.1016 7.03125 76.4336 6.61719 76.8633 6.25781C77.3008 5.89062 77.832 5.60547 78.457 5.40234C79.0898 5.19141 79.8008 5.08594 80.5898 5.08594C81.6914 5.08594 82.6367 5.26172 83.4258 5.61328C84.2227 5.96484 84.832 6.44922 85.2539 7.06641C85.6836 7.67578 85.8984 8.37109 85.8984 9.15234H82.5234C82.5234 8.82422 82.4531 8.53125 82.3125 8.27344C82.1797 8.00781 81.9688 7.80078 81.6797 7.65234C81.3984 7.49609 81.0312 7.41797 80.5781 7.41797C80.2031 7.41797 79.8789 7.48438 79.6055 7.61719C79.332 7.74219 79.1211 7.91406 78.9727 8.13281C78.832 8.34375 78.7617 8.57812 78.7617 8.83594C78.7617 9.03125 78.8008 9.20703 78.8789 9.36328C78.9648 9.51172 79.1016 9.64844 79.2891 9.77344C79.4766 9.89844 79.7188 10.0156 80.0156 10.125C80.3203 10.2266 80.6953 10.3203 81.1406 10.4062C82.0547 10.5938 82.8711 10.8398 83.5898 11.1445C84.3086 11.4414 84.8789 11.8477 85.3008 12.3633C85.7227 12.8711 85.9336 13.5391 85.9336 14.3672C85.9336 14.9297 85.8086 15.4453 85.5586 15.9141C85.3086 16.3828 84.9492 16.793 84.4805 17.1445C84.0117 17.4883 83.4492 17.7578 82.793 17.9531C82.1445 18.1406 81.4141 18.2344 80.6016 18.2344C79.4219 18.2344 78.4219 18.0234 77.6016 17.6016C76.7891 17.1797 76.1719 16.6445 75.75 15.9961C75.3359 15.3398 75.1289 14.668 75.1289 13.9805H78.3281C78.3438 14.4414 78.4609 14.8125 78.6797 15.0938C78.9062 15.375 79.1914 15.5781 79.5352 15.7031C79.8867 15.8281 80.2656 15.8906 80.6719 15.8906C81.1094 15.8906 81.4727 15.832 81.7617 15.7148C82.0508 15.5898 82.2695 15.4258 82.418 15.2227C82.5742 15.0117 82.6523 14.7695 82.6523 14.4961ZM89.2891 16.3711C89.2891 15.8711 89.4609 15.4531 89.8047 15.1172C90.1562 14.7812 90.6211 14.6133 91.1992 14.6133C91.7773 14.6133 92.2383 14.7812 92.582 15.1172C92.9336 15.4531 93.1094 15.8711 93.1094 16.3711C93.1094 16.8711 92.9336 17.2891 92.582 17.625C92.2383 17.9609 91.7773 18.1289 91.1992 18.1289C90.6211 18.1289 90.1562 17.9609 89.8047 17.625C89.4609 17.2891 89.2891 16.8711 89.2891 16.3711ZM100.648 0V18H97.2617V0H100.648ZM108.75 15.5391L111.562 5.32031H115.09L110.812 18H108.68L108.75 15.5391ZM106.816 5.32031L109.641 15.5508L109.699 18H107.555L103.277 5.32031H106.816Z" fill="#151515"/>
</svg>
